{
    "asset" : {
        "generator" : "Khronos glTF Blender I/O v3.4.50",
        "version" : "2.0"
    },
    "extensionsUsed" : [
        "KHR_materials_specular",
        "KHR_materials_ior"
    ],
    "scene" : 0,
    "scenes" : [
        {
            "name" : "Scene",
            "nodes" : [
                0
            ]
        }
    ],
    "nodes" : [
        {
            "mesh" : 0,
            "name" : "Plane-col"
        }
    ],
    "materials" : [
        {
            "doubleSided" : true,
            "name" : "Material.001",
            "pbrMetallicRoughness" : {
                "baseColorFactor" : [
                    0.800000011920929,
                    0.800000011920929,
                    0.800000011920929,
                    1
                ],
                "metallicFactor" : 0,
                "roughnessFactor" : 0.5
            }
        },
        {
            "doubleSided" : true,
            "name" : "Material.002",
            "pbrMetallicRoughness" : {
                "baseColorFactor" : [
                    0.800000011920929,
                    0.800000011920929,
                    0.800000011920929,
                    1
                ],
                "metallicFactor" : 0,
                "roughnessFactor" : 0.5
            }
        },
        {
            "doubleSided" : true,
            "extensions" : {
                "KHR_materials_specular" : {
                    "specularColorFactor" : [
                        0,
                        0,
                        0
                    ]
                },
                "KHR_materials_ior" : {
                    "ior" : 1.4500000476837158
                }
            },
            "name" : "ambientCG/CorrugatedSteel007C/1K-JPG",
            "pbrMetallicRoughness" : {
                "baseColorTexture" : {
                    "index" : 0
                },
                "metallicFactor" : 0,
                "roughnessFactor" : 0.7022900581359863
            }
        },
        {
            "doubleSided" : true,
            "name" : "Material",
            "pbrMetallicRoughness" : {
                "baseColorTexture" : {
                    "index" : 1
                },
                "metallicFactor" : 0,
                "roughnessFactor" : 0.5
            }
        }
    ],
    "meshes" : [
        {
            "name" : "Plane",
            "primitives" : [
                {
                    "attributes" : {
                        "POSITION" : 0,
                        "TEXCOORD_0" : 1,
                        "NORMAL" : 2
                    },
                    "indices" : 3,
                    "material" : 0
                },
                {
                    "attributes" : {
                        "POSITION" : 4,
                        "TEXCOORD_0" : 5,
                        "NORMAL" : 6
                    },
                    "indices" : 7,
                    "material" : 1
                },
                {
                    "attributes" : {
                        "POSITION" : 8,
                        "TEXCOORD_0" : 9,
                        "NORMAL" : 10
                    },
                    "indices" : 11,
                    "material" : 2
                },
                {
                    "attributes" : {
                        "POSITION" : 12,
                        "TEXCOORD_0" : 13,
                        "NORMAL" : 14
                    },
                    "indices" : 15,
                    "material" : 3
                }
            ]
        }
    ],
    "textures" : [
        {
            "sampler" : 0,
            "source" : 0
        },
        {
            "sampler" : 0,
            "source" : 1
        }
    ],
    "images" : [
        {
            "bufferView" : 12,
            "mimeType" : "image/jpeg",
            "name" : "CorrugatedSteel007C_1K_Color"
        },
        {
            "bufferView" : 17,
            "mimeType" : "image/jpeg",
            "name" : "istockphoto-501193649-612x612"
        }
    ],
    "accessors" : [
        {
            "bufferView" : 0,
            "componentType" : 5126,
            "count" : 334,
            "max" : [
                24.48927116394043,
                6.314213752746582,
                24.48927116394043
            ],
            "min" : [
                -24.48927116394043,
                0,
                -24.48927116394043
            ],
            "type" : "VEC3"
        },
        {
            "bufferView" : 1,
            "componentType" : 5126,
            "count" : 334,
            "type" : "VEC2"
        },
        {
            "bufferView" : 2,
            "componentType" : 5126,
            "count" : 334,
            "type" : "VEC3"
        },
        {
            "bufferView" : 3,
            "componentType" : 5123,
            "count" : 1410,
            "type" : "SCALAR"
        },
        {
            "bufferView" : 4,
            "componentType" : 5126,
            "count" : 1040,
            "max" : [
                15.963990211486816,
                2.0708372592926025,
                16.649707794189453
            ],
            "min" : [
                -17.823816299438477,
                0.07083699107170105,
                -16.385345458984375
            ],
            "type" : "VEC3"
        },
        {
            "bufferView" : 5,
            "componentType" : 5126,
            "count" : 1040,
            "type" : "VEC2"
        },
        {
            "bufferView" : 6,
            "componentType" : 5126,
            "count" : 1040,
            "type" : "VEC3"
        },
        {
            "bufferView" : 7,
            "componentType" : 5123,
            "count" : 4512,
            "type" : "SCALAR"
        },
        {
            "bufferView" : 8,
            "componentType" : 5126,
            "count" : 15172,
            "max" : [
                21.117334365844727,
                6.3939948081970215,
                20.700529098510742
            ],
            "min" : [
                -21.117334365844727,
                0,
                -20.700529098510742
            ],
            "type" : "VEC3"
        },
        {
            "bufferView" : 9,
            "componentType" : 5126,
            "count" : 15172,
            "type" : "VEC2"
        },
        {
            "bufferView" : 10,
            "componentType" : 5126,
            "count" : 15172,
            "type" : "VEC3"
        },
        {
            "bufferView" : 11,
            "componentType" : 5123,
            "count" : 71376,
            "type" : "SCALAR"
        },
        {
            "bufferView" : 13,
            "componentType" : 5126,
            "count" : 1072,
            "max" : [
                20.496129989624023,
                5.692770481109619,
                20.079326629638672
            ],
            "min" : [
                -20.496129989624023,
                3.2967042922973633,
                -20.079326629638672
            ],
            "type" : "VEC3"
        },
        {
            "bufferView" : 14,
            "componentType" : 5126,
            "count" : 1072,
            "type" : "VEC2"
        },
        {
            "bufferView" : 15,
            "componentType" : 5126,
            "count" : 1072,
            "type" : "VEC3"
        },
        {
            "bufferView" : 16,
            "componentType" : 5123,
            "count" : 3792,
            "type" : "SCALAR"
        }
    ],
    "bufferViews" : [
        {
            "buffer" : 0,
            "byteLength" : 4008,
            "byteOffset" : 0,
            "target" : 34962
        },
        {
            "buffer" : 0,
            "byteLength" : 2672,
            "byteOffset" : 4008,
            "target" : 34962
        },
        {
            "buffer" : 0,
            "byteLength" : 4008,
            "byteOffset" : 6680,
            "target" : 34962
        },
        {
            "buffer" : 0,
            "byteLength" : 2820,
            "byteOffset" : 10688,
            "target" : 34963
        },
        {
            "buffer" : 0,
            "byteLength" : 12480,
            "byteOffset" : 13508,
            "target" : 34962
        },
        {
            "buffer" : 0,
            "byteLength" : 8320,
            "byteOffset" : 25988,
            "target" : 34962
        },
        {
            "buffer" : 0,
            "byteLength" : 12480,
            "byteOffset" : 34308,
            "target" : 34962
        },
        {
            "buffer" : 0,
            "byteLength" : 9024,
            "byteOffset" : 46788,
            "target" : 34963
        },
        {
            "buffer" : 0,
            "byteLength" : 182064,
            "byteOffset" : 55812,
            "target" : 34962
        },
        {
            "buffer" : 0,
            "byteLength" : 121376,
            "byteOffset" : 237876,
            "target" : 34962
        },
        {
            "buffer" : 0,
            "byteLength" : 182064,
            "byteOffset" : 359252,
            "target" : 34962
        },
        {
            "buffer" : 0,
            "byteLength" : 142752,
            "byteOffset" : 541316,
            "target" : 34963
        },
        {
            "buffer" : 0,
            "byteLength" : 1593114,
            "byteOffset" : 684068
        },
        {
            "buffer" : 0,
            "byteLength" : 12864,
            "byteOffset" : 2277184,
            "target" : 34962
        },
        {
            "buffer" : 0,
            "byteLength" : 8576,
            "byteOffset" : 2290048,
            "target" : 34962
        },
        {
            "buffer" : 0,
            "byteLength" : 12864,
            "byteOffset" : 2298624,
            "target" : 34962
        },
        {
            "buffer" : 0,
            "byteLength" : 7584,
            "byteOffset" : 2311488,
            "target" : 34963
        },
        {
            "buffer" : 0,
            "byteLength" : 40758,
            "byteOffset" : 2319072
        }
    ],
    "samplers" : [
        {
            "magFilter" : 9728,
            "minFilter" : 9984
        }
    ],
    "buffers" : [
        {
            "byteLength" : 2359832,
            "uri" : "data:application/octet-stream;base64,"
        }
    ]
}
